%TF.GenerationSoftware,KiCad,Pcbnew,9.0.1*%
%TF.CreationDate,2025-05-09T16:34:40+03:00*%
%TF.ProjectId,PLL_1,504c4c5f-312e-46b6-9963-61645f706362,rev?*%
%TF.SameCoordinates,Original*%
%TF.FileFunction,Legend,Top*%
%TF.FilePolarity,Positive*%
%FSLAX46Y46*%
G04 Gerber Fmt 4.6, Leading zero omitted, Abs format (unit mm)*
G04 Created by KiCad (PCBNEW 9.0.1) date 2025-05-09 16:34:40*
%MOMM*%
%LPD*%
G01*
G04 APERTURE LIST*
%ADD10C,0.150000*%
%ADD11C,0.120000*%
%ADD12C,0.152400*%
G04 APERTURE END LIST*
D10*
X86893333Y-109324819D02*
X86560000Y-108848628D01*
X86321905Y-109324819D02*
X86321905Y-108324819D01*
X86321905Y-108324819D02*
X86702857Y-108324819D01*
X86702857Y-108324819D02*
X86798095Y-108372438D01*
X86798095Y-108372438D02*
X86845714Y-108420057D01*
X86845714Y-108420057D02*
X86893333Y-108515295D01*
X86893333Y-108515295D02*
X86893333Y-108658152D01*
X86893333Y-108658152D02*
X86845714Y-108753390D01*
X86845714Y-108753390D02*
X86798095Y-108801009D01*
X86798095Y-108801009D02*
X86702857Y-108848628D01*
X86702857Y-108848628D02*
X86321905Y-108848628D01*
X87226667Y-108324819D02*
X87845714Y-108324819D01*
X87845714Y-108324819D02*
X87512381Y-108705771D01*
X87512381Y-108705771D02*
X87655238Y-108705771D01*
X87655238Y-108705771D02*
X87750476Y-108753390D01*
X87750476Y-108753390D02*
X87798095Y-108801009D01*
X87798095Y-108801009D02*
X87845714Y-108896247D01*
X87845714Y-108896247D02*
X87845714Y-109134342D01*
X87845714Y-109134342D02*
X87798095Y-109229580D01*
X87798095Y-109229580D02*
X87750476Y-109277200D01*
X87750476Y-109277200D02*
X87655238Y-109324819D01*
X87655238Y-109324819D02*
X87369524Y-109324819D01*
X87369524Y-109324819D02*
X87274286Y-109277200D01*
X87274286Y-109277200D02*
X87226667Y-109229580D01*
X89514819Y-98039523D02*
X88514819Y-98039523D01*
X88514819Y-98039523D02*
X89229104Y-97706190D01*
X89229104Y-97706190D02*
X88514819Y-97372857D01*
X88514819Y-97372857D02*
X89514819Y-97372857D01*
X89514819Y-96372857D02*
X89514819Y-96944285D01*
X89514819Y-96658571D02*
X88514819Y-96658571D01*
X88514819Y-96658571D02*
X88657676Y-96753809D01*
X88657676Y-96753809D02*
X88752914Y-96849047D01*
X88752914Y-96849047D02*
X88800533Y-96944285D01*
X125738095Y-79454819D02*
X125738095Y-80264342D01*
X125738095Y-80264342D02*
X125785714Y-80359580D01*
X125785714Y-80359580D02*
X125833333Y-80407200D01*
X125833333Y-80407200D02*
X125928571Y-80454819D01*
X125928571Y-80454819D02*
X126119047Y-80454819D01*
X126119047Y-80454819D02*
X126214285Y-80407200D01*
X126214285Y-80407200D02*
X126261904Y-80359580D01*
X126261904Y-80359580D02*
X126309523Y-80264342D01*
X126309523Y-80264342D02*
X126309523Y-79454819D01*
X127261904Y-79454819D02*
X126785714Y-79454819D01*
X126785714Y-79454819D02*
X126738095Y-79931009D01*
X126738095Y-79931009D02*
X126785714Y-79883390D01*
X126785714Y-79883390D02*
X126880952Y-79835771D01*
X126880952Y-79835771D02*
X127119047Y-79835771D01*
X127119047Y-79835771D02*
X127214285Y-79883390D01*
X127214285Y-79883390D02*
X127261904Y-79931009D01*
X127261904Y-79931009D02*
X127309523Y-80026247D01*
X127309523Y-80026247D02*
X127309523Y-80264342D01*
X127309523Y-80264342D02*
X127261904Y-80359580D01*
X127261904Y-80359580D02*
X127214285Y-80407200D01*
X127214285Y-80407200D02*
X127119047Y-80454819D01*
X127119047Y-80454819D02*
X126880952Y-80454819D01*
X126880952Y-80454819D02*
X126785714Y-80407200D01*
X126785714Y-80407200D02*
X126738095Y-80359580D01*
X122500000Y-72305119D02*
X122500000Y-72543214D01*
X122261905Y-72447976D02*
X122500000Y-72543214D01*
X122500000Y-72543214D02*
X122738095Y-72447976D01*
X122357143Y-72733690D02*
X122500000Y-72543214D01*
X122500000Y-72543214D02*
X122642857Y-72733690D01*
X122500000Y-72305119D02*
X122500000Y-72543214D01*
X122261905Y-72447976D02*
X122500000Y-72543214D01*
X122500000Y-72543214D02*
X122738095Y-72447976D01*
X122357143Y-72733690D02*
X122500000Y-72543214D01*
X122500000Y-72543214D02*
X122642857Y-72733690D01*
X103454819Y-64951904D02*
X104264342Y-64951904D01*
X104264342Y-64951904D02*
X104359580Y-64904285D01*
X104359580Y-64904285D02*
X104407200Y-64856666D01*
X104407200Y-64856666D02*
X104454819Y-64761428D01*
X104454819Y-64761428D02*
X104454819Y-64570952D01*
X104454819Y-64570952D02*
X104407200Y-64475714D01*
X104407200Y-64475714D02*
X104359580Y-64428095D01*
X104359580Y-64428095D02*
X104264342Y-64380476D01*
X104264342Y-64380476D02*
X103454819Y-64380476D01*
X103788152Y-63475714D02*
X104454819Y-63475714D01*
X103407200Y-63713809D02*
X104121485Y-63951904D01*
X104121485Y-63951904D02*
X104121485Y-63332857D01*
X95845119Y-67999999D02*
X96083214Y-67999999D01*
X95987976Y-68238094D02*
X96083214Y-67999999D01*
X96083214Y-67999999D02*
X95987976Y-67761904D01*
X96273690Y-68142856D02*
X96083214Y-67999999D01*
X96083214Y-67999999D02*
X96273690Y-67857142D01*
X95845119Y-67999999D02*
X96083214Y-67999999D01*
X95987976Y-68238094D02*
X96083214Y-67999999D01*
X96083214Y-67999999D02*
X95987976Y-67761904D01*
X96273690Y-68142856D02*
X96083214Y-67999999D01*
X96083214Y-67999999D02*
X96273690Y-67857142D01*
X94954819Y-87261904D02*
X95764342Y-87261904D01*
X95764342Y-87261904D02*
X95859580Y-87214285D01*
X95859580Y-87214285D02*
X95907200Y-87166666D01*
X95907200Y-87166666D02*
X95954819Y-87071428D01*
X95954819Y-87071428D02*
X95954819Y-86880952D01*
X95954819Y-86880952D02*
X95907200Y-86785714D01*
X95907200Y-86785714D02*
X95859580Y-86738095D01*
X95859580Y-86738095D02*
X95764342Y-86690476D01*
X95764342Y-86690476D02*
X94954819Y-86690476D01*
X94954819Y-86309523D02*
X94954819Y-85690476D01*
X94954819Y-85690476D02*
X95335771Y-86023809D01*
X95335771Y-86023809D02*
X95335771Y-85880952D01*
X95335771Y-85880952D02*
X95383390Y-85785714D01*
X95383390Y-85785714D02*
X95431009Y-85738095D01*
X95431009Y-85738095D02*
X95526247Y-85690476D01*
X95526247Y-85690476D02*
X95764342Y-85690476D01*
X95764342Y-85690476D02*
X95859580Y-85738095D01*
X95859580Y-85738095D02*
X95907200Y-85785714D01*
X95907200Y-85785714D02*
X95954819Y-85880952D01*
X95954819Y-85880952D02*
X95954819Y-86166666D01*
X95954819Y-86166666D02*
X95907200Y-86261904D01*
X95907200Y-86261904D02*
X95859580Y-86309523D01*
X87845119Y-89499999D02*
X88083214Y-89499999D01*
X87987976Y-89738094D02*
X88083214Y-89499999D01*
X88083214Y-89499999D02*
X87987976Y-89261904D01*
X88273690Y-89642856D02*
X88083214Y-89499999D01*
X88083214Y-89499999D02*
X88273690Y-89357142D01*
X87845119Y-89499999D02*
X88083214Y-89499999D01*
X87987976Y-89738094D02*
X88083214Y-89499999D01*
X88083214Y-89499999D02*
X87987976Y-89261904D01*
X88273690Y-89642856D02*
X88083214Y-89499999D01*
X88083214Y-89499999D02*
X88273690Y-89357142D01*
X49738095Y-66954819D02*
X49738095Y-67764342D01*
X49738095Y-67764342D02*
X49785714Y-67859580D01*
X49785714Y-67859580D02*
X49833333Y-67907200D01*
X49833333Y-67907200D02*
X49928571Y-67954819D01*
X49928571Y-67954819D02*
X50119047Y-67954819D01*
X50119047Y-67954819D02*
X50214285Y-67907200D01*
X50214285Y-67907200D02*
X50261904Y-67859580D01*
X50261904Y-67859580D02*
X50309523Y-67764342D01*
X50309523Y-67764342D02*
X50309523Y-66954819D01*
X50738095Y-67050057D02*
X50785714Y-67002438D01*
X50785714Y-67002438D02*
X50880952Y-66954819D01*
X50880952Y-66954819D02*
X51119047Y-66954819D01*
X51119047Y-66954819D02*
X51214285Y-67002438D01*
X51214285Y-67002438D02*
X51261904Y-67050057D01*
X51261904Y-67050057D02*
X51309523Y-67145295D01*
X51309523Y-67145295D02*
X51309523Y-67240533D01*
X51309523Y-67240533D02*
X51261904Y-67383390D01*
X51261904Y-67383390D02*
X50690476Y-67954819D01*
X50690476Y-67954819D02*
X51309523Y-67954819D01*
X46620000Y-59965119D02*
X46620000Y-60203214D01*
X46381905Y-60107976D02*
X46620000Y-60203214D01*
X46620000Y-60203214D02*
X46858095Y-60107976D01*
X46477143Y-60393690D02*
X46620000Y-60203214D01*
X46620000Y-60203214D02*
X46762857Y-60393690D01*
X46620000Y-59965119D02*
X46620000Y-60203214D01*
X46381905Y-60107976D02*
X46620000Y-60203214D01*
X46620000Y-60203214D02*
X46858095Y-60107976D01*
X46477143Y-60393690D02*
X46620000Y-60203214D01*
X46620000Y-60203214D02*
X46762857Y-60393690D01*
X49548095Y-97454819D02*
X49548095Y-98264342D01*
X49548095Y-98264342D02*
X49595714Y-98359580D01*
X49595714Y-98359580D02*
X49643333Y-98407200D01*
X49643333Y-98407200D02*
X49738571Y-98454819D01*
X49738571Y-98454819D02*
X49929047Y-98454819D01*
X49929047Y-98454819D02*
X50024285Y-98407200D01*
X50024285Y-98407200D02*
X50071904Y-98359580D01*
X50071904Y-98359580D02*
X50119523Y-98264342D01*
X50119523Y-98264342D02*
X50119523Y-97454819D01*
X51119523Y-98454819D02*
X50548095Y-98454819D01*
X50833809Y-98454819D02*
X50833809Y-97454819D01*
X50833809Y-97454819D02*
X50738571Y-97597676D01*
X50738571Y-97597676D02*
X50643333Y-97692914D01*
X50643333Y-97692914D02*
X50548095Y-97740533D01*
X46500000Y-86545119D02*
X46500000Y-86783214D01*
X46261905Y-86687976D02*
X46500000Y-86783214D01*
X46500000Y-86783214D02*
X46738095Y-86687976D01*
X46357143Y-86973690D02*
X46500000Y-86783214D01*
X46500000Y-86783214D02*
X46642857Y-86973690D01*
X46500000Y-86545119D02*
X46500000Y-86783214D01*
X46261905Y-86687976D02*
X46500000Y-86783214D01*
X46500000Y-86783214D02*
X46738095Y-86687976D01*
X46357143Y-86973690D02*
X46500000Y-86783214D01*
X46500000Y-86783214D02*
X46642857Y-86973690D01*
X64324819Y-86142857D02*
X63848628Y-86476190D01*
X64324819Y-86714285D02*
X63324819Y-86714285D01*
X63324819Y-86714285D02*
X63324819Y-86333333D01*
X63324819Y-86333333D02*
X63372438Y-86238095D01*
X63372438Y-86238095D02*
X63420057Y-86190476D01*
X63420057Y-86190476D02*
X63515295Y-86142857D01*
X63515295Y-86142857D02*
X63658152Y-86142857D01*
X63658152Y-86142857D02*
X63753390Y-86190476D01*
X63753390Y-86190476D02*
X63801009Y-86238095D01*
X63801009Y-86238095D02*
X63848628Y-86333333D01*
X63848628Y-86333333D02*
X63848628Y-86714285D01*
X64324819Y-85190476D02*
X64324819Y-85761904D01*
X64324819Y-85476190D02*
X63324819Y-85476190D01*
X63324819Y-85476190D02*
X63467676Y-85571428D01*
X63467676Y-85571428D02*
X63562914Y-85666666D01*
X63562914Y-85666666D02*
X63610533Y-85761904D01*
X63420057Y-84809523D02*
X63372438Y-84761904D01*
X63372438Y-84761904D02*
X63324819Y-84666666D01*
X63324819Y-84666666D02*
X63324819Y-84428571D01*
X63324819Y-84428571D02*
X63372438Y-84333333D01*
X63372438Y-84333333D02*
X63420057Y-84285714D01*
X63420057Y-84285714D02*
X63515295Y-84238095D01*
X63515295Y-84238095D02*
X63610533Y-84238095D01*
X63610533Y-84238095D02*
X63753390Y-84285714D01*
X63753390Y-84285714D02*
X64324819Y-84857142D01*
X64324819Y-84857142D02*
X64324819Y-84238095D01*
X62357142Y-104084819D02*
X62023809Y-103608628D01*
X61785714Y-104084819D02*
X61785714Y-103084819D01*
X61785714Y-103084819D02*
X62166666Y-103084819D01*
X62166666Y-103084819D02*
X62261904Y-103132438D01*
X62261904Y-103132438D02*
X62309523Y-103180057D01*
X62309523Y-103180057D02*
X62357142Y-103275295D01*
X62357142Y-103275295D02*
X62357142Y-103418152D01*
X62357142Y-103418152D02*
X62309523Y-103513390D01*
X62309523Y-103513390D02*
X62261904Y-103561009D01*
X62261904Y-103561009D02*
X62166666Y-103608628D01*
X62166666Y-103608628D02*
X61785714Y-103608628D01*
X63309523Y-104084819D02*
X62738095Y-104084819D01*
X63023809Y-104084819D02*
X63023809Y-103084819D01*
X63023809Y-103084819D02*
X62928571Y-103227676D01*
X62928571Y-103227676D02*
X62833333Y-103322914D01*
X62833333Y-103322914D02*
X62738095Y-103370533D01*
X64261904Y-104084819D02*
X63690476Y-104084819D01*
X63976190Y-104084819D02*
X63976190Y-103084819D01*
X63976190Y-103084819D02*
X63880952Y-103227676D01*
X63880952Y-103227676D02*
X63785714Y-103322914D01*
X63785714Y-103322914D02*
X63690476Y-103370533D01*
X79644819Y-85666666D02*
X79168628Y-85999999D01*
X79644819Y-86238094D02*
X78644819Y-86238094D01*
X78644819Y-86238094D02*
X78644819Y-85857142D01*
X78644819Y-85857142D02*
X78692438Y-85761904D01*
X78692438Y-85761904D02*
X78740057Y-85714285D01*
X78740057Y-85714285D02*
X78835295Y-85666666D01*
X78835295Y-85666666D02*
X78978152Y-85666666D01*
X78978152Y-85666666D02*
X79073390Y-85714285D01*
X79073390Y-85714285D02*
X79121009Y-85761904D01*
X79121009Y-85761904D02*
X79168628Y-85857142D01*
X79168628Y-85857142D02*
X79168628Y-86238094D01*
X79644819Y-85190475D02*
X79644819Y-84999999D01*
X79644819Y-84999999D02*
X79597200Y-84904761D01*
X79597200Y-84904761D02*
X79549580Y-84857142D01*
X79549580Y-84857142D02*
X79406723Y-84761904D01*
X79406723Y-84761904D02*
X79216247Y-84714285D01*
X79216247Y-84714285D02*
X78835295Y-84714285D01*
X78835295Y-84714285D02*
X78740057Y-84761904D01*
X78740057Y-84761904D02*
X78692438Y-84809523D01*
X78692438Y-84809523D02*
X78644819Y-84904761D01*
X78644819Y-84904761D02*
X78644819Y-85095237D01*
X78644819Y-85095237D02*
X78692438Y-85190475D01*
X78692438Y-85190475D02*
X78740057Y-85238094D01*
X78740057Y-85238094D02*
X78835295Y-85285713D01*
X78835295Y-85285713D02*
X79073390Y-85285713D01*
X79073390Y-85285713D02*
X79168628Y-85238094D01*
X79168628Y-85238094D02*
X79216247Y-85190475D01*
X79216247Y-85190475D02*
X79263866Y-85095237D01*
X79263866Y-85095237D02*
X79263866Y-84904761D01*
X79263866Y-84904761D02*
X79216247Y-84809523D01*
X79216247Y-84809523D02*
X79168628Y-84761904D01*
X79168628Y-84761904D02*
X79073390Y-84714285D01*
X85083333Y-59584819D02*
X84750000Y-59108628D01*
X84511905Y-59584819D02*
X84511905Y-58584819D01*
X84511905Y-58584819D02*
X84892857Y-58584819D01*
X84892857Y-58584819D02*
X84988095Y-58632438D01*
X84988095Y-58632438D02*
X85035714Y-58680057D01*
X85035714Y-58680057D02*
X85083333Y-58775295D01*
X85083333Y-58775295D02*
X85083333Y-58918152D01*
X85083333Y-58918152D02*
X85035714Y-59013390D01*
X85035714Y-59013390D02*
X84988095Y-59061009D01*
X84988095Y-59061009D02*
X84892857Y-59108628D01*
X84892857Y-59108628D02*
X84511905Y-59108628D01*
X85654762Y-59013390D02*
X85559524Y-58965771D01*
X85559524Y-58965771D02*
X85511905Y-58918152D01*
X85511905Y-58918152D02*
X85464286Y-58822914D01*
X85464286Y-58822914D02*
X85464286Y-58775295D01*
X85464286Y-58775295D02*
X85511905Y-58680057D01*
X85511905Y-58680057D02*
X85559524Y-58632438D01*
X85559524Y-58632438D02*
X85654762Y-58584819D01*
X85654762Y-58584819D02*
X85845238Y-58584819D01*
X85845238Y-58584819D02*
X85940476Y-58632438D01*
X85940476Y-58632438D02*
X85988095Y-58680057D01*
X85988095Y-58680057D02*
X86035714Y-58775295D01*
X86035714Y-58775295D02*
X86035714Y-58822914D01*
X86035714Y-58822914D02*
X85988095Y-58918152D01*
X85988095Y-58918152D02*
X85940476Y-58965771D01*
X85940476Y-58965771D02*
X85845238Y-59013390D01*
X85845238Y-59013390D02*
X85654762Y-59013390D01*
X85654762Y-59013390D02*
X85559524Y-59061009D01*
X85559524Y-59061009D02*
X85511905Y-59108628D01*
X85511905Y-59108628D02*
X85464286Y-59203866D01*
X85464286Y-59203866D02*
X85464286Y-59394342D01*
X85464286Y-59394342D02*
X85511905Y-59489580D01*
X85511905Y-59489580D02*
X85559524Y-59537200D01*
X85559524Y-59537200D02*
X85654762Y-59584819D01*
X85654762Y-59584819D02*
X85845238Y-59584819D01*
X85845238Y-59584819D02*
X85940476Y-59537200D01*
X85940476Y-59537200D02*
X85988095Y-59489580D01*
X85988095Y-59489580D02*
X86035714Y-59394342D01*
X86035714Y-59394342D02*
X86035714Y-59203866D01*
X86035714Y-59203866D02*
X85988095Y-59108628D01*
X85988095Y-59108628D02*
X85940476Y-59061009D01*
X85940476Y-59061009D02*
X85845238Y-59013390D01*
X93144819Y-98166666D02*
X92668628Y-98499999D01*
X93144819Y-98738094D02*
X92144819Y-98738094D01*
X92144819Y-98738094D02*
X92144819Y-98357142D01*
X92144819Y-98357142D02*
X92192438Y-98261904D01*
X92192438Y-98261904D02*
X92240057Y-98214285D01*
X92240057Y-98214285D02*
X92335295Y-98166666D01*
X92335295Y-98166666D02*
X92478152Y-98166666D01*
X92478152Y-98166666D02*
X92573390Y-98214285D01*
X92573390Y-98214285D02*
X92621009Y-98261904D01*
X92621009Y-98261904D02*
X92668628Y-98357142D01*
X92668628Y-98357142D02*
X92668628Y-98738094D01*
X92144819Y-97833332D02*
X92144819Y-97166666D01*
X92144819Y-97166666D02*
X93144819Y-97595237D01*
X111644819Y-86356666D02*
X111168628Y-86689999D01*
X111644819Y-86928094D02*
X110644819Y-86928094D01*
X110644819Y-86928094D02*
X110644819Y-86547142D01*
X110644819Y-86547142D02*
X110692438Y-86451904D01*
X110692438Y-86451904D02*
X110740057Y-86404285D01*
X110740057Y-86404285D02*
X110835295Y-86356666D01*
X110835295Y-86356666D02*
X110978152Y-86356666D01*
X110978152Y-86356666D02*
X111073390Y-86404285D01*
X111073390Y-86404285D02*
X111121009Y-86451904D01*
X111121009Y-86451904D02*
X111168628Y-86547142D01*
X111168628Y-86547142D02*
X111168628Y-86928094D01*
X110644819Y-85499523D02*
X110644819Y-85689999D01*
X110644819Y-85689999D02*
X110692438Y-85785237D01*
X110692438Y-85785237D02*
X110740057Y-85832856D01*
X110740057Y-85832856D02*
X110882914Y-85928094D01*
X110882914Y-85928094D02*
X111073390Y-85975713D01*
X111073390Y-85975713D02*
X111454342Y-85975713D01*
X111454342Y-85975713D02*
X111549580Y-85928094D01*
X111549580Y-85928094D02*
X111597200Y-85880475D01*
X111597200Y-85880475D02*
X111644819Y-85785237D01*
X111644819Y-85785237D02*
X111644819Y-85594761D01*
X111644819Y-85594761D02*
X111597200Y-85499523D01*
X111597200Y-85499523D02*
X111549580Y-85451904D01*
X111549580Y-85451904D02*
X111454342Y-85404285D01*
X111454342Y-85404285D02*
X111216247Y-85404285D01*
X111216247Y-85404285D02*
X111121009Y-85451904D01*
X111121009Y-85451904D02*
X111073390Y-85499523D01*
X111073390Y-85499523D02*
X111025771Y-85594761D01*
X111025771Y-85594761D02*
X111025771Y-85785237D01*
X111025771Y-85785237D02*
X111073390Y-85880475D01*
X111073390Y-85880475D02*
X111121009Y-85928094D01*
X111121009Y-85928094D02*
X111216247Y-85975713D01*
X100083333Y-77324819D02*
X99750000Y-76848628D01*
X99511905Y-77324819D02*
X99511905Y-76324819D01*
X99511905Y-76324819D02*
X99892857Y-76324819D01*
X99892857Y-76324819D02*
X99988095Y-76372438D01*
X99988095Y-76372438D02*
X100035714Y-76420057D01*
X100035714Y-76420057D02*
X100083333Y-76515295D01*
X100083333Y-76515295D02*
X100083333Y-76658152D01*
X100083333Y-76658152D02*
X100035714Y-76753390D01*
X100035714Y-76753390D02*
X99988095Y-76801009D01*
X99988095Y-76801009D02*
X99892857Y-76848628D01*
X99892857Y-76848628D02*
X99511905Y-76848628D01*
X100988095Y-76324819D02*
X100511905Y-76324819D01*
X100511905Y-76324819D02*
X100464286Y-76801009D01*
X100464286Y-76801009D02*
X100511905Y-76753390D01*
X100511905Y-76753390D02*
X100607143Y-76705771D01*
X100607143Y-76705771D02*
X100845238Y-76705771D01*
X100845238Y-76705771D02*
X100940476Y-76753390D01*
X100940476Y-76753390D02*
X100988095Y-76801009D01*
X100988095Y-76801009D02*
X101035714Y-76896247D01*
X101035714Y-76896247D02*
X101035714Y-77134342D01*
X101035714Y-77134342D02*
X100988095Y-77229580D01*
X100988095Y-77229580D02*
X100940476Y-77277200D01*
X100940476Y-77277200D02*
X100845238Y-77324819D01*
X100845238Y-77324819D02*
X100607143Y-77324819D01*
X100607143Y-77324819D02*
X100511905Y-77277200D01*
X100511905Y-77277200D02*
X100464286Y-77229580D01*
X104833333Y-104324819D02*
X104500000Y-103848628D01*
X104261905Y-104324819D02*
X104261905Y-103324819D01*
X104261905Y-103324819D02*
X104642857Y-103324819D01*
X104642857Y-103324819D02*
X104738095Y-103372438D01*
X104738095Y-103372438D02*
X104785714Y-103420057D01*
X104785714Y-103420057D02*
X104833333Y-103515295D01*
X104833333Y-103515295D02*
X104833333Y-103658152D01*
X104833333Y-103658152D02*
X104785714Y-103753390D01*
X104785714Y-103753390D02*
X104738095Y-103801009D01*
X104738095Y-103801009D02*
X104642857Y-103848628D01*
X104642857Y-103848628D02*
X104261905Y-103848628D01*
X105690476Y-103658152D02*
X105690476Y-104324819D01*
X105452381Y-103277200D02*
X105214286Y-103991485D01*
X105214286Y-103991485D02*
X105833333Y-103991485D01*
X112584819Y-101666666D02*
X112108628Y-101999999D01*
X112584819Y-102238094D02*
X111584819Y-102238094D01*
X111584819Y-102238094D02*
X111584819Y-101857142D01*
X111584819Y-101857142D02*
X111632438Y-101761904D01*
X111632438Y-101761904D02*
X111680057Y-101714285D01*
X111680057Y-101714285D02*
X111775295Y-101666666D01*
X111775295Y-101666666D02*
X111918152Y-101666666D01*
X111918152Y-101666666D02*
X112013390Y-101714285D01*
X112013390Y-101714285D02*
X112061009Y-101761904D01*
X112061009Y-101761904D02*
X112108628Y-101857142D01*
X112108628Y-101857142D02*
X112108628Y-102238094D01*
X111680057Y-101285713D02*
X111632438Y-101238094D01*
X111632438Y-101238094D02*
X111584819Y-101142856D01*
X111584819Y-101142856D02*
X111584819Y-100904761D01*
X111584819Y-100904761D02*
X111632438Y-100809523D01*
X111632438Y-100809523D02*
X111680057Y-100761904D01*
X111680057Y-100761904D02*
X111775295Y-100714285D01*
X111775295Y-100714285D02*
X111870533Y-100714285D01*
X111870533Y-100714285D02*
X112013390Y-100761904D01*
X112013390Y-100761904D02*
X112584819Y-101333332D01*
X112584819Y-101333332D02*
X112584819Y-100714285D01*
X111333333Y-77324819D02*
X111000000Y-76848628D01*
X110761905Y-77324819D02*
X110761905Y-76324819D01*
X110761905Y-76324819D02*
X111142857Y-76324819D01*
X111142857Y-76324819D02*
X111238095Y-76372438D01*
X111238095Y-76372438D02*
X111285714Y-76420057D01*
X111285714Y-76420057D02*
X111333333Y-76515295D01*
X111333333Y-76515295D02*
X111333333Y-76658152D01*
X111333333Y-76658152D02*
X111285714Y-76753390D01*
X111285714Y-76753390D02*
X111238095Y-76801009D01*
X111238095Y-76801009D02*
X111142857Y-76848628D01*
X111142857Y-76848628D02*
X110761905Y-76848628D01*
X112285714Y-77324819D02*
X111714286Y-77324819D01*
X112000000Y-77324819D02*
X112000000Y-76324819D01*
X112000000Y-76324819D02*
X111904762Y-76467676D01*
X111904762Y-76467676D02*
X111809524Y-76562914D01*
X111809524Y-76562914D02*
X111714286Y-76610533D01*
X68404761Y-75550057D02*
X68309523Y-75502438D01*
X68309523Y-75502438D02*
X68214285Y-75407200D01*
X68214285Y-75407200D02*
X68071428Y-75264342D01*
X68071428Y-75264342D02*
X67976190Y-75216723D01*
X67976190Y-75216723D02*
X67880952Y-75216723D01*
X67928571Y-75454819D02*
X67833333Y-75407200D01*
X67833333Y-75407200D02*
X67738095Y-75311961D01*
X67738095Y-75311961D02*
X67690476Y-75121485D01*
X67690476Y-75121485D02*
X67690476Y-74788152D01*
X67690476Y-74788152D02*
X67738095Y-74597676D01*
X67738095Y-74597676D02*
X67833333Y-74502438D01*
X67833333Y-74502438D02*
X67928571Y-74454819D01*
X67928571Y-74454819D02*
X68119047Y-74454819D01*
X68119047Y-74454819D02*
X68214285Y-74502438D01*
X68214285Y-74502438D02*
X68309523Y-74597676D01*
X68309523Y-74597676D02*
X68357142Y-74788152D01*
X68357142Y-74788152D02*
X68357142Y-75121485D01*
X68357142Y-75121485D02*
X68309523Y-75311961D01*
X68309523Y-75311961D02*
X68214285Y-75407200D01*
X68214285Y-75407200D02*
X68119047Y-75454819D01*
X68119047Y-75454819D02*
X67928571Y-75454819D01*
X68738095Y-74550057D02*
X68785714Y-74502438D01*
X68785714Y-74502438D02*
X68880952Y-74454819D01*
X68880952Y-74454819D02*
X69119047Y-74454819D01*
X69119047Y-74454819D02*
X69214285Y-74502438D01*
X69214285Y-74502438D02*
X69261904Y-74550057D01*
X69261904Y-74550057D02*
X69309523Y-74645295D01*
X69309523Y-74645295D02*
X69309523Y-74740533D01*
X69309523Y-74740533D02*
X69261904Y-74883390D01*
X69261904Y-74883390D02*
X68690476Y-75454819D01*
X68690476Y-75454819D02*
X69309523Y-75454819D01*
X74904761Y-86550057D02*
X74809523Y-86502438D01*
X74809523Y-86502438D02*
X74714285Y-86407200D01*
X74714285Y-86407200D02*
X74571428Y-86264342D01*
X74571428Y-86264342D02*
X74476190Y-86216723D01*
X74476190Y-86216723D02*
X74380952Y-86216723D01*
X74428571Y-86454819D02*
X74333333Y-86407200D01*
X74333333Y-86407200D02*
X74238095Y-86311961D01*
X74238095Y-86311961D02*
X74190476Y-86121485D01*
X74190476Y-86121485D02*
X74190476Y-85788152D01*
X74190476Y-85788152D02*
X74238095Y-85597676D01*
X74238095Y-85597676D02*
X74333333Y-85502438D01*
X74333333Y-85502438D02*
X74428571Y-85454819D01*
X74428571Y-85454819D02*
X74619047Y-85454819D01*
X74619047Y-85454819D02*
X74714285Y-85502438D01*
X74714285Y-85502438D02*
X74809523Y-85597676D01*
X74809523Y-85597676D02*
X74857142Y-85788152D01*
X74857142Y-85788152D02*
X74857142Y-86121485D01*
X74857142Y-86121485D02*
X74809523Y-86311961D01*
X74809523Y-86311961D02*
X74714285Y-86407200D01*
X74714285Y-86407200D02*
X74619047Y-86454819D01*
X74619047Y-86454819D02*
X74428571Y-86454819D01*
X75809523Y-86454819D02*
X75238095Y-86454819D01*
X75523809Y-86454819D02*
X75523809Y-85454819D01*
X75523809Y-85454819D02*
X75428571Y-85597676D01*
X75428571Y-85597676D02*
X75333333Y-85692914D01*
X75333333Y-85692914D02*
X75238095Y-85740533D01*
X59834819Y-73928094D02*
X58834819Y-73928094D01*
X58834819Y-73928094D02*
X58834819Y-73689999D01*
X58834819Y-73689999D02*
X58882438Y-73547142D01*
X58882438Y-73547142D02*
X58977676Y-73451904D01*
X58977676Y-73451904D02*
X59072914Y-73404285D01*
X59072914Y-73404285D02*
X59263390Y-73356666D01*
X59263390Y-73356666D02*
X59406247Y-73356666D01*
X59406247Y-73356666D02*
X59596723Y-73404285D01*
X59596723Y-73404285D02*
X59691961Y-73451904D01*
X59691961Y-73451904D02*
X59787200Y-73547142D01*
X59787200Y-73547142D02*
X59834819Y-73689999D01*
X59834819Y-73689999D02*
X59834819Y-73928094D01*
X59168152Y-72499523D02*
X59834819Y-72499523D01*
X58787200Y-72737618D02*
X59501485Y-72975713D01*
X59501485Y-72975713D02*
X59501485Y-72356666D01*
X60154819Y-77261904D02*
X59154819Y-77261904D01*
X60154819Y-76690476D02*
X59583390Y-77119047D01*
X59154819Y-76690476D02*
X59726247Y-77261904D01*
X59834819Y-62238094D02*
X58834819Y-62238094D01*
X58834819Y-62238094D02*
X58834819Y-61999999D01*
X58834819Y-61999999D02*
X58882438Y-61857142D01*
X58882438Y-61857142D02*
X58977676Y-61761904D01*
X58977676Y-61761904D02*
X59072914Y-61714285D01*
X59072914Y-61714285D02*
X59263390Y-61666666D01*
X59263390Y-61666666D02*
X59406247Y-61666666D01*
X59406247Y-61666666D02*
X59596723Y-61714285D01*
X59596723Y-61714285D02*
X59691961Y-61761904D01*
X59691961Y-61761904D02*
X59787200Y-61857142D01*
X59787200Y-61857142D02*
X59834819Y-61999999D01*
X59834819Y-61999999D02*
X59834819Y-62238094D01*
X58834819Y-61333332D02*
X58834819Y-60714285D01*
X58834819Y-60714285D02*
X59215771Y-61047618D01*
X59215771Y-61047618D02*
X59215771Y-60904761D01*
X59215771Y-60904761D02*
X59263390Y-60809523D01*
X59263390Y-60809523D02*
X59311009Y-60761904D01*
X59311009Y-60761904D02*
X59406247Y-60714285D01*
X59406247Y-60714285D02*
X59644342Y-60714285D01*
X59644342Y-60714285D02*
X59739580Y-60761904D01*
X59739580Y-60761904D02*
X59787200Y-60809523D01*
X59787200Y-60809523D02*
X59834819Y-60904761D01*
X59834819Y-60904761D02*
X59834819Y-61190475D01*
X59834819Y-61190475D02*
X59787200Y-61285713D01*
X59787200Y-61285713D02*
X59739580Y-61333332D01*
X60154819Y-65571904D02*
X59154819Y-65571904D01*
X60154819Y-65000476D02*
X59583390Y-65429047D01*
X59154819Y-65000476D02*
X59726247Y-65571904D01*
X72334819Y-102428094D02*
X71334819Y-102428094D01*
X71334819Y-102428094D02*
X71334819Y-102189999D01*
X71334819Y-102189999D02*
X71382438Y-102047142D01*
X71382438Y-102047142D02*
X71477676Y-101951904D01*
X71477676Y-101951904D02*
X71572914Y-101904285D01*
X71572914Y-101904285D02*
X71763390Y-101856666D01*
X71763390Y-101856666D02*
X71906247Y-101856666D01*
X71906247Y-101856666D02*
X72096723Y-101904285D01*
X72096723Y-101904285D02*
X72191961Y-101951904D01*
X72191961Y-101951904D02*
X72287200Y-102047142D01*
X72287200Y-102047142D02*
X72334819Y-102189999D01*
X72334819Y-102189999D02*
X72334819Y-102428094D01*
X71430057Y-101475713D02*
X71382438Y-101428094D01*
X71382438Y-101428094D02*
X71334819Y-101332856D01*
X71334819Y-101332856D02*
X71334819Y-101094761D01*
X71334819Y-101094761D02*
X71382438Y-100999523D01*
X71382438Y-100999523D02*
X71430057Y-100951904D01*
X71430057Y-100951904D02*
X71525295Y-100904285D01*
X71525295Y-100904285D02*
X71620533Y-100904285D01*
X71620533Y-100904285D02*
X71763390Y-100951904D01*
X71763390Y-100951904D02*
X72334819Y-101523332D01*
X72334819Y-101523332D02*
X72334819Y-100904285D01*
X72654819Y-105761904D02*
X71654819Y-105761904D01*
X72654819Y-105190476D02*
X72083390Y-105619047D01*
X71654819Y-105190476D02*
X72226247Y-105761904D01*
X62261905Y-100074819D02*
X62261905Y-99074819D01*
X62261905Y-99074819D02*
X62500000Y-99074819D01*
X62500000Y-99074819D02*
X62642857Y-99122438D01*
X62642857Y-99122438D02*
X62738095Y-99217676D01*
X62738095Y-99217676D02*
X62785714Y-99312914D01*
X62785714Y-99312914D02*
X62833333Y-99503390D01*
X62833333Y-99503390D02*
X62833333Y-99646247D01*
X62833333Y-99646247D02*
X62785714Y-99836723D01*
X62785714Y-99836723D02*
X62738095Y-99931961D01*
X62738095Y-99931961D02*
X62642857Y-100027200D01*
X62642857Y-100027200D02*
X62500000Y-100074819D01*
X62500000Y-100074819D02*
X62261905Y-100074819D01*
X63785714Y-100074819D02*
X63214286Y-100074819D01*
X63500000Y-100074819D02*
X63500000Y-99074819D01*
X63500000Y-99074819D02*
X63404762Y-99217676D01*
X63404762Y-99217676D02*
X63309524Y-99312914D01*
X63309524Y-99312914D02*
X63214286Y-99360533D01*
X66548095Y-99754819D02*
X66548095Y-98754819D01*
X67119523Y-99754819D02*
X66690952Y-99183390D01*
X67119523Y-98754819D02*
X66548095Y-99326247D01*
X84419580Y-71666666D02*
X84467200Y-71714285D01*
X84467200Y-71714285D02*
X84514819Y-71857142D01*
X84514819Y-71857142D02*
X84514819Y-71952380D01*
X84514819Y-71952380D02*
X84467200Y-72095237D01*
X84467200Y-72095237D02*
X84371961Y-72190475D01*
X84371961Y-72190475D02*
X84276723Y-72238094D01*
X84276723Y-72238094D02*
X84086247Y-72285713D01*
X84086247Y-72285713D02*
X83943390Y-72285713D01*
X83943390Y-72285713D02*
X83752914Y-72238094D01*
X83752914Y-72238094D02*
X83657676Y-72190475D01*
X83657676Y-72190475D02*
X83562438Y-72095237D01*
X83562438Y-72095237D02*
X83514819Y-71952380D01*
X83514819Y-71952380D02*
X83514819Y-71857142D01*
X83514819Y-71857142D02*
X83562438Y-71714285D01*
X83562438Y-71714285D02*
X83610057Y-71666666D01*
X83514819Y-71333332D02*
X83514819Y-70714285D01*
X83514819Y-70714285D02*
X83895771Y-71047618D01*
X83895771Y-71047618D02*
X83895771Y-70904761D01*
X83895771Y-70904761D02*
X83943390Y-70809523D01*
X83943390Y-70809523D02*
X83991009Y-70761904D01*
X83991009Y-70761904D02*
X84086247Y-70714285D01*
X84086247Y-70714285D02*
X84324342Y-70714285D01*
X84324342Y-70714285D02*
X84419580Y-70761904D01*
X84419580Y-70761904D02*
X84467200Y-70809523D01*
X84467200Y-70809523D02*
X84514819Y-70904761D01*
X84514819Y-70904761D02*
X84514819Y-71190475D01*
X84514819Y-71190475D02*
X84467200Y-71285713D01*
X84467200Y-71285713D02*
X84419580Y-71333332D01*
X91859580Y-71666666D02*
X91907200Y-71714285D01*
X91907200Y-71714285D02*
X91954819Y-71857142D01*
X91954819Y-71857142D02*
X91954819Y-71952380D01*
X91954819Y-71952380D02*
X91907200Y-72095237D01*
X91907200Y-72095237D02*
X91811961Y-72190475D01*
X91811961Y-72190475D02*
X91716723Y-72238094D01*
X91716723Y-72238094D02*
X91526247Y-72285713D01*
X91526247Y-72285713D02*
X91383390Y-72285713D01*
X91383390Y-72285713D02*
X91192914Y-72238094D01*
X91192914Y-72238094D02*
X91097676Y-72190475D01*
X91097676Y-72190475D02*
X91002438Y-72095237D01*
X91002438Y-72095237D02*
X90954819Y-71952380D01*
X90954819Y-71952380D02*
X90954819Y-71857142D01*
X90954819Y-71857142D02*
X91002438Y-71714285D01*
X91002438Y-71714285D02*
X91050057Y-71666666D01*
X91050057Y-71285713D02*
X91002438Y-71238094D01*
X91002438Y-71238094D02*
X90954819Y-71142856D01*
X90954819Y-71142856D02*
X90954819Y-70904761D01*
X90954819Y-70904761D02*
X91002438Y-70809523D01*
X91002438Y-70809523D02*
X91050057Y-70761904D01*
X91050057Y-70761904D02*
X91145295Y-70714285D01*
X91145295Y-70714285D02*
X91240533Y-70714285D01*
X91240533Y-70714285D02*
X91383390Y-70761904D01*
X91383390Y-70761904D02*
X91954819Y-71333332D01*
X91954819Y-71333332D02*
X91954819Y-70714285D01*
X103393333Y-97409580D02*
X103345714Y-97457200D01*
X103345714Y-97457200D02*
X103202857Y-97504819D01*
X103202857Y-97504819D02*
X103107619Y-97504819D01*
X103107619Y-97504819D02*
X102964762Y-97457200D01*
X102964762Y-97457200D02*
X102869524Y-97361961D01*
X102869524Y-97361961D02*
X102821905Y-97266723D01*
X102821905Y-97266723D02*
X102774286Y-97076247D01*
X102774286Y-97076247D02*
X102774286Y-96933390D01*
X102774286Y-96933390D02*
X102821905Y-96742914D01*
X102821905Y-96742914D02*
X102869524Y-96647676D01*
X102869524Y-96647676D02*
X102964762Y-96552438D01*
X102964762Y-96552438D02*
X103107619Y-96504819D01*
X103107619Y-96504819D02*
X103202857Y-96504819D01*
X103202857Y-96504819D02*
X103345714Y-96552438D01*
X103345714Y-96552438D02*
X103393333Y-96600057D01*
X104345714Y-97504819D02*
X103774286Y-97504819D01*
X104060000Y-97504819D02*
X104060000Y-96504819D01*
X104060000Y-96504819D02*
X103964762Y-96647676D01*
X103964762Y-96647676D02*
X103869524Y-96742914D01*
X103869524Y-96742914D02*
X103774286Y-96790533D01*
X74324819Y-65142857D02*
X73848628Y-65476190D01*
X74324819Y-65714285D02*
X73324819Y-65714285D01*
X73324819Y-65714285D02*
X73324819Y-65333333D01*
X73324819Y-65333333D02*
X73372438Y-65238095D01*
X73372438Y-65238095D02*
X73420057Y-65190476D01*
X73420057Y-65190476D02*
X73515295Y-65142857D01*
X73515295Y-65142857D02*
X73658152Y-65142857D01*
X73658152Y-65142857D02*
X73753390Y-65190476D01*
X73753390Y-65190476D02*
X73801009Y-65238095D01*
X73801009Y-65238095D02*
X73848628Y-65333333D01*
X73848628Y-65333333D02*
X73848628Y-65714285D01*
X74324819Y-64190476D02*
X74324819Y-64761904D01*
X74324819Y-64476190D02*
X73324819Y-64476190D01*
X73324819Y-64476190D02*
X73467676Y-64571428D01*
X73467676Y-64571428D02*
X73562914Y-64666666D01*
X73562914Y-64666666D02*
X73610533Y-64761904D01*
X73324819Y-63571428D02*
X73324819Y-63476190D01*
X73324819Y-63476190D02*
X73372438Y-63380952D01*
X73372438Y-63380952D02*
X73420057Y-63333333D01*
X73420057Y-63333333D02*
X73515295Y-63285714D01*
X73515295Y-63285714D02*
X73705771Y-63238095D01*
X73705771Y-63238095D02*
X73943866Y-63238095D01*
X73943866Y-63238095D02*
X74134342Y-63285714D01*
X74134342Y-63285714D02*
X74229580Y-63333333D01*
X74229580Y-63333333D02*
X74277200Y-63380952D01*
X74277200Y-63380952D02*
X74324819Y-63476190D01*
X74324819Y-63476190D02*
X74324819Y-63571428D01*
X74324819Y-63571428D02*
X74277200Y-63666666D01*
X74277200Y-63666666D02*
X74229580Y-63714285D01*
X74229580Y-63714285D02*
X74134342Y-63761904D01*
X74134342Y-63761904D02*
X73943866Y-63809523D01*
X73943866Y-63809523D02*
X73705771Y-63809523D01*
X73705771Y-63809523D02*
X73515295Y-63761904D01*
X73515295Y-63761904D02*
X73420057Y-63714285D01*
X73420057Y-63714285D02*
X73372438Y-63666666D01*
X73372438Y-63666666D02*
X73324819Y-63571428D01*
D11*
%TO.C,R3*%
X83790000Y-105130000D02*
X83790000Y-105460000D01*
X83790000Y-107870000D02*
X83790000Y-107540000D01*
X90330000Y-105130000D02*
X83790000Y-105130000D01*
X90330000Y-105460000D02*
X90330000Y-105130000D01*
X90330000Y-107540000D02*
X90330000Y-107870000D01*
X90330000Y-107870000D02*
X83790000Y-107870000D01*
%TO.C,\u039C1*%
X83650000Y-95430000D02*
X83650000Y-99030000D01*
X83661522Y-95391522D02*
G75*
G02*
X88100001Y-97230000I1838478J-1838478D01*
G01*
X88100000Y-97230000D02*
G75*
G02*
X83661522Y-99068478I-2600000J0D01*
G01*
D12*
%TO.C,U5*%
X122944500Y-91760600D02*
X129675500Y-91760600D01*
X129675500Y-91760600D02*
X129675500Y-90373889D01*
X129675500Y-71999400D02*
X122944500Y-71999400D01*
X122944500Y-71999400D02*
X122944500Y-73279560D01*
X122944500Y-75240440D02*
X122944500Y-75926111D01*
X122944500Y-77673889D02*
X122944500Y-78466111D01*
X122944500Y-80213889D02*
X122944500Y-81006111D01*
X122944500Y-82753889D02*
X122944500Y-83546111D01*
X122944500Y-85293889D02*
X122944500Y-86086111D01*
X122944500Y-87833889D02*
X122944500Y-88626111D01*
X122944500Y-90373889D02*
X122944500Y-91760600D01*
X129675500Y-88626111D02*
X129675500Y-87833889D01*
X129675500Y-86086111D02*
X129675500Y-85293889D01*
X129675500Y-83546111D02*
X129675500Y-82753889D01*
X129675500Y-81006111D02*
X129675500Y-80213889D01*
X129675500Y-78466111D02*
X129675500Y-77673889D01*
X129675500Y-75926111D02*
X129675500Y-75133889D01*
X129675500Y-73386111D02*
X129675500Y-71999400D01*
%TO.C,U4*%
X115262500Y-67492000D02*
X115262500Y-60888000D01*
X115262500Y-60888000D02*
X113878569Y-60888000D01*
X95577500Y-60888000D02*
X95577500Y-67492000D01*
X95577500Y-67492000D02*
X96819560Y-67492000D01*
X95577500Y-63885200D02*
G75*
G02*
X95577500Y-64494800I0J-304800D01*
G01*
X98780440Y-67492000D02*
X99501431Y-67492000D01*
X101178569Y-67492000D02*
X102041431Y-67492000D01*
X103718569Y-67492000D02*
X104581431Y-67492000D01*
X106258569Y-67492000D02*
X107121431Y-67492000D01*
X108798569Y-67492000D02*
X109661431Y-67492000D01*
X111338569Y-67492000D02*
X112201431Y-67492000D01*
X113878569Y-67492000D02*
X115262500Y-67492000D01*
X112201431Y-60888000D02*
X111338569Y-60888000D01*
X109661431Y-60888000D02*
X108798569Y-60888000D01*
X107121431Y-60888000D02*
X106258569Y-60888000D01*
X104581431Y-60888000D02*
X103718569Y-60888000D01*
X102041431Y-60888000D02*
X101178569Y-60888000D01*
X99501431Y-60888000D02*
X98638569Y-60888000D01*
X96961431Y-60888000D02*
X95577500Y-60888000D01*
%TO.C,U3*%
X107389500Y-89119000D02*
X107389500Y-82261000D01*
X107389500Y-82261000D02*
X105943383Y-82261000D01*
X87450500Y-82261000D02*
X87450500Y-89119000D01*
X87450500Y-89119000D02*
X88819560Y-89119000D01*
X90780440Y-89119000D02*
X91436617Y-89119000D01*
X93243383Y-89119000D02*
X93976617Y-89119000D01*
X95783383Y-89119000D02*
X96516617Y-89119000D01*
X98323383Y-89119000D02*
X99056617Y-89119000D01*
X100863383Y-89119000D02*
X101596617Y-89119000D01*
X103403383Y-89119000D02*
X104136617Y-89119000D01*
X105943383Y-89119000D02*
X107389500Y-89119000D01*
X104136617Y-82261000D02*
X103403383Y-82261000D01*
X101596617Y-82261000D02*
X100863383Y-82261000D01*
X99056617Y-82261000D02*
X98323383Y-82261000D01*
X96516617Y-82261000D02*
X95783383Y-82261000D01*
X93976617Y-82261000D02*
X93243383Y-82261000D01*
X91436617Y-82261000D02*
X90703383Y-82261000D01*
X88896617Y-82261000D02*
X87450500Y-82261000D01*
%TO.C,U2*%
X47064500Y-79420600D02*
X53795500Y-79420600D01*
X53795500Y-79420600D02*
X53795500Y-78033889D01*
X53795500Y-59659400D02*
X47064500Y-59659400D01*
X47064500Y-59659400D02*
X47064500Y-60939560D01*
X47064500Y-62900440D02*
X47064500Y-63586111D01*
X47064500Y-65333889D02*
X47064500Y-66126111D01*
X47064500Y-67873889D02*
X47064500Y-68666111D01*
X47064500Y-70413889D02*
X47064500Y-71206111D01*
X47064500Y-72953889D02*
X47064500Y-73746111D01*
X47064500Y-75493889D02*
X47064500Y-76286111D01*
X47064500Y-78033889D02*
X47064500Y-79420600D01*
X53795500Y-76286111D02*
X53795500Y-75493889D01*
X53795500Y-73746111D02*
X53795500Y-72953889D01*
X53795500Y-71206111D02*
X53795500Y-70413889D01*
X53795500Y-68666111D02*
X53795500Y-67873889D01*
X53795500Y-66126111D02*
X53795500Y-65333889D01*
X53795500Y-63586111D02*
X53795500Y-62793889D01*
X53795500Y-61046111D02*
X53795500Y-59659400D01*
%TO.C,U1*%
X46944500Y-106000600D02*
X53675500Y-106000600D01*
X53675500Y-106000600D02*
X53675500Y-104613889D01*
X53675500Y-86239400D02*
X46944500Y-86239400D01*
X46944500Y-86239400D02*
X46944500Y-87519560D01*
X46944500Y-89480440D02*
X46944500Y-90166111D01*
X46944500Y-91913889D02*
X46944500Y-92706111D01*
X46944500Y-94453889D02*
X46944500Y-95246111D01*
X46944500Y-96993889D02*
X46944500Y-97786111D01*
X46944500Y-99533889D02*
X46944500Y-100326111D01*
X46944500Y-102073889D02*
X46944500Y-102866111D01*
X46944500Y-104613889D02*
X46944500Y-106000600D01*
X53675500Y-102866111D02*
X53675500Y-102073889D01*
X53675500Y-100326111D02*
X53675500Y-99533889D01*
X53675500Y-97786111D02*
X53675500Y-96993889D01*
X53675500Y-95246111D02*
X53675500Y-94453889D01*
X53675500Y-92706111D02*
X53675500Y-91913889D01*
X53675500Y-90166111D02*
X53675500Y-89373889D01*
X53675500Y-87626111D02*
X53675500Y-86239400D01*
D11*
%TO.C,R12*%
X62870000Y-82230000D02*
X62870000Y-88770000D01*
X62540000Y-82230000D02*
X62870000Y-82230000D01*
X60460000Y-82230000D02*
X60130000Y-82230000D01*
X60130000Y-82230000D02*
X60130000Y-88770000D01*
X62870000Y-88770000D02*
X62540000Y-88770000D01*
X60130000Y-88770000D02*
X60460000Y-88770000D01*
%TO.C,R11*%
X59730000Y-104630000D02*
X66270000Y-104630000D01*
X59730000Y-104960000D02*
X59730000Y-104630000D01*
X59730000Y-107040000D02*
X59730000Y-107370000D01*
X59730000Y-107370000D02*
X66270000Y-107370000D01*
X66270000Y-104630000D02*
X66270000Y-104960000D01*
X66270000Y-107370000D02*
X66270000Y-107040000D01*
%TO.C,R9*%
X80190000Y-88770000D02*
X80190000Y-82230000D01*
X80520000Y-88770000D02*
X80190000Y-88770000D01*
X82600000Y-88770000D02*
X82930000Y-88770000D01*
X82930000Y-88770000D02*
X82930000Y-82230000D01*
X80190000Y-82230000D02*
X80520000Y-82230000D01*
X82930000Y-82230000D02*
X82600000Y-82230000D01*
%TO.C,R8*%
X81980000Y-60130000D02*
X88520000Y-60130000D01*
X81980000Y-60460000D02*
X81980000Y-60130000D01*
X81980000Y-62540000D02*
X81980000Y-62870000D01*
X81980000Y-62870000D02*
X88520000Y-62870000D01*
X88520000Y-60130000D02*
X88520000Y-60460000D01*
X88520000Y-62870000D02*
X88520000Y-62540000D01*
%TO.C,R7*%
X93690000Y-101270000D02*
X93690000Y-94730000D01*
X94020000Y-101270000D02*
X93690000Y-101270000D01*
X96100000Y-101270000D02*
X96430000Y-101270000D01*
X96430000Y-101270000D02*
X96430000Y-94730000D01*
X93690000Y-94730000D02*
X94020000Y-94730000D01*
X96430000Y-94730000D02*
X96100000Y-94730000D01*
%TO.C,R6*%
X112190000Y-89460000D02*
X112190000Y-82920000D01*
X112520000Y-89460000D02*
X112190000Y-89460000D01*
X114600000Y-89460000D02*
X114930000Y-89460000D01*
X114930000Y-89460000D02*
X114930000Y-82920000D01*
X112190000Y-82920000D02*
X112520000Y-82920000D01*
X114930000Y-82920000D02*
X114600000Y-82920000D01*
%TO.C,R5*%
X103520000Y-75870000D02*
X96980000Y-75870000D01*
X103520000Y-75540000D02*
X103520000Y-75870000D01*
X103520000Y-73460000D02*
X103520000Y-73130000D01*
X103520000Y-73130000D02*
X96980000Y-73130000D01*
X96980000Y-75870000D02*
X96980000Y-75540000D01*
X96980000Y-73130000D02*
X96980000Y-73460000D01*
%TO.C,R4*%
X108270000Y-102870000D02*
X101730000Y-102870000D01*
X108270000Y-102540000D02*
X108270000Y-102870000D01*
X108270000Y-100460000D02*
X108270000Y-100130000D01*
X108270000Y-100130000D02*
X101730000Y-100130000D01*
X101730000Y-102870000D02*
X101730000Y-102540000D01*
X101730000Y-100130000D02*
X101730000Y-100460000D01*
%TO.C,R2*%
X113130000Y-104770000D02*
X113130000Y-98230000D01*
X113460000Y-104770000D02*
X113130000Y-104770000D01*
X115540000Y-104770000D02*
X115870000Y-104770000D01*
X115870000Y-104770000D02*
X115870000Y-98230000D01*
X113130000Y-98230000D02*
X113460000Y-98230000D01*
X115870000Y-98230000D02*
X115540000Y-98230000D01*
%TO.C,R1*%
X114770000Y-75870000D02*
X108230000Y-75870000D01*
X114770000Y-75540000D02*
X114770000Y-75870000D01*
X114770000Y-73460000D02*
X114770000Y-73130000D01*
X114770000Y-73130000D02*
X108230000Y-73130000D01*
X108230000Y-75870000D02*
X108230000Y-75540000D01*
X108230000Y-73130000D02*
X108230000Y-73460000D01*
D12*
%TO.C,Q2*%
X75048000Y-77730000D02*
G75*
G02*
X68952000Y-77730000I-3048000J0D01*
G01*
X68952000Y-77730000D02*
G75*
G02*
X75048000Y-77730000I3048000J0D01*
G01*
%TO.C,Q1*%
X74752600Y-88500000D02*
G75*
G02*
X68707400Y-88500000I-3022600J0D01*
G01*
X68707400Y-88500000D02*
G75*
G02*
X74752600Y-88500000I3022600J0D01*
G01*
D11*
%TO.C,D4*%
X61500000Y-75960000D02*
X61500000Y-75310000D01*
X60380000Y-75310000D02*
X62620000Y-75310000D01*
X62620000Y-75310000D02*
X62620000Y-71070000D01*
X60380000Y-74710000D02*
X62620000Y-74710000D01*
X60380000Y-74590000D02*
X62620000Y-74590000D01*
X60380000Y-74470000D02*
X62620000Y-74470000D01*
X60380000Y-71070000D02*
X60380000Y-75310000D01*
X62620000Y-71070000D02*
X60380000Y-71070000D01*
X61500000Y-70420000D02*
X61500000Y-71070000D01*
%TO.C,D3*%
X61500000Y-64270000D02*
X61500000Y-63620000D01*
X60380000Y-63620000D02*
X62620000Y-63620000D01*
X62620000Y-63620000D02*
X62620000Y-59380000D01*
X60380000Y-63020000D02*
X62620000Y-63020000D01*
X60380000Y-62900000D02*
X62620000Y-62900000D01*
X60380000Y-62780000D02*
X62620000Y-62780000D01*
X60380000Y-59380000D02*
X60380000Y-63620000D01*
X62620000Y-59380000D02*
X60380000Y-59380000D01*
X61500000Y-58730000D02*
X61500000Y-59380000D01*
%TO.C,D2*%
X74000000Y-104460000D02*
X74000000Y-103810000D01*
X72880000Y-103810000D02*
X75120000Y-103810000D01*
X75120000Y-103810000D02*
X75120000Y-99570000D01*
X72880000Y-103210000D02*
X75120000Y-103210000D01*
X72880000Y-103090000D02*
X75120000Y-103090000D01*
X72880000Y-102970000D02*
X75120000Y-102970000D01*
X72880000Y-99570000D02*
X72880000Y-103810000D01*
X75120000Y-99570000D02*
X72880000Y-99570000D01*
X74000000Y-98920000D02*
X74000000Y-99570000D01*
%TO.C,D1*%
X65770000Y-97500000D02*
X65120000Y-97500000D01*
X65120000Y-98620000D02*
X65120000Y-96380000D01*
X65120000Y-96380000D02*
X60880000Y-96380000D01*
X64520000Y-98620000D02*
X64520000Y-96380000D01*
X64400000Y-98620000D02*
X64400000Y-96380000D01*
X64280000Y-98620000D02*
X64280000Y-96380000D01*
X60880000Y-98620000D02*
X65120000Y-98620000D01*
X60880000Y-96380000D02*
X60880000Y-98620000D01*
X60230000Y-97500000D02*
X60880000Y-97500000D01*
%TO.C,C3*%
X82930000Y-69030000D02*
X82600000Y-69030000D01*
X82930000Y-69030000D02*
X82930000Y-73970000D01*
X80520000Y-69030000D02*
X80190000Y-69030000D01*
X80190000Y-69030000D02*
X80190000Y-73970000D01*
X82930000Y-73970000D02*
X82600000Y-73970000D01*
X80520000Y-73970000D02*
X80190000Y-73970000D01*
%TO.C,C2*%
X90370000Y-67780000D02*
X87630000Y-67780000D01*
X90370000Y-67780000D02*
X90370000Y-75220000D01*
X87630000Y-67780000D02*
X87630000Y-75220000D01*
X90370000Y-75220000D02*
X87630000Y-75220000D01*
%TO.C,C1*%
X104325000Y-95920000D02*
X102795000Y-95920000D01*
X104325000Y-94080000D02*
X102795000Y-94080000D01*
%TO.C,R10*%
X72870000Y-61230000D02*
X72870000Y-67770000D01*
X72540000Y-61230000D02*
X72870000Y-61230000D01*
X70460000Y-61230000D02*
X70130000Y-61230000D01*
X70130000Y-61230000D02*
X70130000Y-67770000D01*
X72870000Y-67770000D02*
X72540000Y-67770000D01*
X70130000Y-67770000D02*
X70460000Y-67770000D01*
%TD*%
M02*
