M48
; DRILL file {KiCad 9.0.1} date 2025-05-09T16:20:38+0300
; FORMAT={-:-/ absolute / metric / decimal}
; #@! TF.CreationDate,2025-05-09T16:20:38+03:00
; #@! TF.GenerationSoftware,Kicad,Pcbnew,9.0.1
; #@! TF.FileFunction,Plated,1,2,PTH
FMAT,2
METRIC
; #@! TA.AperFunction,Plated,PTH,ComponentDrill
T1C0.737
; #@! TA.AperFunction,Plated,PTH,ComponentDrill
T2C0.750
; #@! TA.AperFunction,Plated,PTH,ComponentDrill
T3C0.787
; #@! TA.AperFunction,Plated,PTH,ComponentDrill
T4C0.800
%
G90
G05
T1
X71.73Y-87.23
X71.73Y-89.77
X73.0Y-88.5
T2
X85.5Y-95.96
X85.5Y-97.23
X85.5Y-98.5
T3
X46.5Y-88.5
X46.5Y-91.04
X46.5Y-93.58
X46.5Y-96.12
X46.5Y-98.66
X46.5Y-101.2
X46.5Y-103.74
X46.62Y-61.92
X46.62Y-64.46
X46.62Y-67.0
X46.62Y-69.54
X46.62Y-72.08
X46.62Y-74.62
X46.62Y-77.16
X54.12Y-88.5
X54.12Y-91.04
X54.12Y-93.58
X54.12Y-96.12
X54.12Y-98.66
X54.12Y-101.2
X54.12Y-103.74
X54.24Y-61.92
X54.24Y-64.46
X54.24Y-67.0
X54.24Y-69.54
X54.24Y-72.08
X54.24Y-74.62
X54.24Y-77.16
X70.73Y-77.73
X72.0Y-76.46
X72.0Y-79.0
X89.8Y-81.88
X89.8Y-89.5
X92.34Y-81.88
X92.34Y-89.5
X94.88Y-81.88
X94.88Y-89.5
X97.42Y-81.88
X97.42Y-89.5
X97.8Y-60.38
X97.8Y-68.0
X99.96Y-81.88
X99.96Y-89.5
X100.34Y-60.38
X100.34Y-68.0
X102.5Y-81.88
X102.5Y-89.5
X102.88Y-60.38
X102.88Y-68.0
X105.04Y-81.88
X105.04Y-89.5
X105.42Y-60.38
X105.42Y-68.0
X107.96Y-60.38
X107.96Y-68.0
X110.5Y-60.38
X110.5Y-68.0
X113.04Y-60.38
X113.04Y-68.0
X122.5Y-74.26
X122.5Y-76.8
X122.5Y-79.34
X122.5Y-81.88
X122.5Y-84.42
X122.5Y-86.96
X122.5Y-89.5
X130.12Y-74.26
X130.12Y-76.8
X130.12Y-79.34
X130.12Y-81.88
X130.12Y-84.42
X130.12Y-86.96
X130.12Y-89.5
T4
X59.19Y-97.5
X59.19Y-106.0
X61.5Y-57.69
X61.5Y-65.31
X61.5Y-69.38
X61.5Y-77.0
X61.5Y-81.69
X61.5Y-89.31
X66.81Y-97.5
X66.81Y-106.0
X71.5Y-60.69
X71.5Y-68.31
X74.0Y-97.88
X74.0Y-105.5
X81.44Y-61.5
X81.56Y-69.0
X81.56Y-74.0
X81.56Y-81.69
X81.56Y-89.31
X83.25Y-106.5
X89.0Y-69.0
X89.0Y-74.0
X89.06Y-61.5
X90.87Y-106.5
X95.06Y-94.19
X95.06Y-101.81
X96.44Y-74.5
X101.19Y-101.5
X102.31Y-95.0
X104.06Y-74.5
X104.81Y-95.0
X107.69Y-74.5
X108.81Y-101.5
X113.56Y-82.38
X113.56Y-90.0
X114.5Y-97.69
X114.5Y-105.31
X115.31Y-74.5
M30
