%TF.GenerationSoftware,KiCad,Pcbnew,9.0.1*%
%TF.CreationDate,2025-05-09T16:34:40+03:00*%
%TF.ProjectId,PLL_1,504c4c5f-312e-46b6-9963-61645f706362,rev?*%
%TF.SameCoordinates,Original*%
%TF.FileFunction,Copper,L1,Top*%
%TF.FilePolarity,Positive*%
%FSLAX46Y46*%
G04 Gerber Fmt 4.6, Leading zero omitted, Abs format (unit mm)*
G04 Created by KiCad (PCBNEW 9.0.1) date 2025-05-09 16:34:40*
%MOMM*%
%LPD*%
G01*
G04 APERTURE LIST*
%TA.AperFunction,ComponentPad*%
%ADD10O,1.600000X1.600000*%
%TD*%
%TA.AperFunction,ComponentPad*%
%ADD11C,1.600000*%
%TD*%
%TA.AperFunction,ComponentPad*%
%ADD12R,1.500000X1.050000*%
%TD*%
%TA.AperFunction,ComponentPad*%
%ADD13O,1.500000X1.050000*%
%TD*%
%TA.AperFunction,ComponentPad*%
%ADD14R,1.295400X1.295400*%
%TD*%
%TA.AperFunction,ComponentPad*%
%ADD15C,1.295400*%
%TD*%
%TA.AperFunction,ComponentPad*%
%ADD16C,1.244600*%
%TD*%
%TA.AperFunction,ComponentPad*%
%ADD17R,1.244600X1.244600*%
%TD*%
%TA.AperFunction,ComponentPad*%
%ADD18R,1.600000X1.600000*%
%TD*%
%TA.AperFunction,Conductor*%
%ADD19C,0.200000*%
%TD*%
G04 APERTURE END LIST*
D10*
%TO.P,R3,2*%
%TO.N,Usq*%
X83250000Y-106500000D03*
D11*
%TO.P,R3,1*%
%TO.N,Net-(U3-1IN+)*%
X90870000Y-106500000D03*
%TD*%
D12*
%TO.P,\u039C1,1,D*%
%TO.N,Net-(\u039C1-D)*%
X85500000Y-95960000D03*
D13*
%TO.P,\u039C1,2,G*%
%TO.N,Usq*%
X85500000Y-97230000D03*
%TO.P,\u039C1,3,S*%
%TO.N,GND*%
X85500000Y-98500000D03*
%TD*%
D14*
%TO.P,U5,1,1R\u002AD*%
%TO.N,VCC*%
X122500000Y-74260000D03*
D15*
%TO.P,U5,2,1D*%
%TO.N,Net-(U5-1D)*%
X122500000Y-76800000D03*
%TO.P,U5,3,1CP*%
%TO.N,Net-(U5-1CP)*%
X122500000Y-79340000D03*
%TO.P,U5,4,1S\u002AD*%
%TO.N,VCC*%
X122500000Y-81880000D03*
%TO.P,U5,5,1Q*%
%TO.N,Ufb{slash}\u03A6fb*%
X122500000Y-84420000D03*
%TO.P,U5,6,1Q\u002A*%
%TO.N,Net-(U5-1D)*%
X122500000Y-86960000D03*
%TO.P,U5,7,GND*%
%TO.N,GND*%
X122500000Y-89500000D03*
%TO.P,U5,8,2Q\u002A*%
%TO.N,Net-(U5-2D)*%
X130120000Y-89500000D03*
%TO.P,U5,9,2Q\u002A*%
%TO.N,Net-(U5-1CP)*%
X130120000Y-86960000D03*
%TO.P,U5,10,2S\u002AD*%
%TO.N,VCC*%
X130120000Y-84420000D03*
%TO.P,U5,11,2CP*%
%TO.N,Uout{slash}\u03A6out*%
X130120000Y-81880000D03*
%TO.P,U5,12,2D*%
%TO.N,Net-(U5-2D)*%
X130120000Y-79340000D03*
%TO.P,U5,13,2R\u002AD*%
%TO.N,VCC*%
X130120000Y-76800000D03*
%TO.P,U5,14,VCC*%
X130120000Y-74260000D03*
%TD*%
D14*
%TO.P,U4,1,1A*%
%TO.N,unconnected-(U4-1A-Pad1)*%
X97800000Y-68000000D03*
D15*
%TO.P,U4,2,1Y*%
%TO.N,unconnected-(U4-1Y-Pad2)*%
X100340000Y-68000000D03*
%TO.P,U4,3,2A*%
%TO.N,unconnected-(U4-2A-Pad3)*%
X102880000Y-68000000D03*
%TO.P,U4,4,2Y*%
%TO.N,unconnected-(U4-2Y-Pad4)*%
X105420000Y-68000000D03*
%TO.P,U4,5,3A*%
%TO.N,unconnected-(U4-3A-Pad5)*%
X107960000Y-68000000D03*
%TO.P,U4,6,3Y*%
%TO.N,unconnected-(U4-3Y-Pad6)*%
X110500000Y-68000000D03*
%TO.P,U4,7,GND*%
%TO.N,GND*%
X113040000Y-68000000D03*
%TO.P,U4,8,4Y*%
%TO.N,unconnected-(U4-4Y-Pad8)*%
X113040000Y-60380000D03*
%TO.P,U4,9,4A*%
%TO.N,unconnected-(U4-4A-Pad9)*%
X110500000Y-60380000D03*
%TO.P,U4,10,5Y*%
%TO.N,Uout{slash}\u03A6out*%
X107960000Y-60380000D03*
%TO.P,U4,11,5A*%
%TO.N,Usq*%
X105420000Y-60380000D03*
%TO.P,U4,12,6Y*%
%TO.N,unconnected-(U4-6Y-Pad12)*%
X102880000Y-60380000D03*
%TO.P,U4,13,6A*%
%TO.N,unconnected-(U4-6A-Pad13)*%
X100340000Y-60380000D03*
%TO.P,U4,14,VCC*%
%TO.N,VCC*%
X97800000Y-60380000D03*
%TD*%
D14*
%TO.P,U3,1,1OUT*%
%TO.N,Usq*%
X89800000Y-89500000D03*
D15*
%TO.P,U3,2,1IN-*%
%TO.N,Net-(U3-1IN-)*%
X92340000Y-89500000D03*
%TO.P,U3,3,1IN+*%
%TO.N,Net-(U3-1IN+)*%
X94880000Y-89500000D03*
%TO.P,U3,4,VCC*%
%TO.N,VCC*%
X97420000Y-89500000D03*
%TO.P,U3,5,2IN+*%
%TO.N,Net-(U3-2IN+)*%
X99960000Y-89500000D03*
%TO.P,U3,6,2IN-*%
%TO.N,Net-(U3-2IN-)*%
X102500000Y-89500000D03*
%TO.P,U3,7,2OUT*%
%TO.N,Net-(U3-1IN-)*%
X105040000Y-89500000D03*
%TO.P,U3,8,3OUT*%
%TO.N,Uctrl*%
X105040000Y-81880000D03*
%TO.P,U3,9,3IN-*%
X102500000Y-81880000D03*
%TO.P,U3,10,3IN+*%
%TO.N,Ucp*%
X99960000Y-81880000D03*
%TO.P,U3,11,GND*%
%TO.N,GND*%
X97420000Y-81880000D03*
%TO.P,U3,12,4IN+*%
%TO.N,unconnected-(U3-4IN+-Pad12)*%
X94880000Y-81880000D03*
%TO.P,U3,13,4IN-*%
%TO.N,unconnected-(U3-4IN--Pad13)*%
X92340000Y-81880000D03*
%TO.P,U3,14,4OUT*%
%TO.N,unconnected-(U3-4OUT-Pad14)*%
X89800000Y-81880000D03*
%TD*%
D14*
%TO.P,U2,1,1A*%
%TO.N,Net-(U2-1A)*%
X46620000Y-61920000D03*
D15*
%TO.P,U2,2,1B*%
X46620000Y-64460000D03*
%TO.P,U2,3,1Y*%
%TO.N,Net-(U1-1R\u002AD)*%
X46620000Y-67000000D03*
%TO.P,U2,4,2A*%
%TO.N,Net-(U2-2A)*%
X46620000Y-69540000D03*
%TO.P,U2,5,2B*%
X46620000Y-72080000D03*
%TO.P,U2,6,2Y*%
%TO.N,Net-(U2-1A)*%
X46620000Y-74620000D03*
%TO.P,U2,7,GND*%
%TO.N,GND*%
X46620000Y-77160000D03*
%TO.P,U2,8,3Y*%
%TO.N,Net-(U2-2A)*%
X54240000Y-77160000D03*
%TO.P,U2,9,3A*%
%TO.N,Net-(U2-3A)*%
X54240000Y-74620000D03*
%TO.P,U2,10,3B*%
%TO.N,Net-(U1-1Q)*%
X54240000Y-72080000D03*
%TO.P,U2,11,4Y*%
%TO.N,Uref{slash}\u03A6ref*%
X54240000Y-69540000D03*
%TO.P,U2,12,4A*%
%TO.N,Uen*%
X54240000Y-67000000D03*
%TO.P,U2,13,4B*%
%TO.N,Uin*%
X54240000Y-64460000D03*
%TO.P,U2,14,VCC*%
%TO.N,VCC*%
X54240000Y-61920000D03*
%TD*%
D14*
%TO.P,U1,1,1R\u002AD*%
%TO.N,Net-(U1-1R\u002AD)*%
X46500000Y-88500000D03*
D15*
%TO.P,U1,2,1D*%
%TO.N,VCC*%
X46500000Y-91040000D03*
%TO.P,U1,3,1CP*%
%TO.N,Uref{slash}\u03A6ref*%
X46500000Y-93580000D03*
%TO.P,U1,4,1S\u002AD*%
%TO.N,VCC*%
X46500000Y-96120000D03*
%TO.P,U1,5,1Q*%
%TO.N,Net-(U1-1Q)*%
X46500000Y-98660000D03*
%TO.P,U1,6,1Q\u002A*%
%TO.N,Net-(U1-1Q\u002A)*%
X46500000Y-101200000D03*
%TO.P,U1,7,GND*%
%TO.N,GND*%
X46500000Y-103740000D03*
%TO.P,U1,8,2Q\u002A*%
%TO.N,unconnected-(U1-2Q\u002A-Pad8)*%
X54120000Y-103740000D03*
%TO.P,U1,9,2Q\u002A*%
%TO.N,Net-(U2-3A)*%
X54120000Y-101200000D03*
%TO.P,U1,10,2S\u002AD*%
%TO.N,VCC*%
X54120000Y-98660000D03*
%TO.P,U1,11,2CP*%
%TO.N,Ufb{slash}\u03A6fb*%
X54120000Y-96120000D03*
%TO.P,U1,12,2D*%
%TO.N,VCC*%
X54120000Y-93580000D03*
%TO.P,U1,13,2R\u002AD*%
%TO.N,Net-(U1-1R\u002AD)*%
X54120000Y-91040000D03*
%TO.P,U1,14,VCC*%
%TO.N,VCC*%
X54120000Y-88500000D03*
%TD*%
D11*
%TO.P,R12,1*%
%TO.N,B2*%
X61500000Y-81690000D03*
D10*
%TO.P,R12,2*%
%TO.N,Net-(U1-1Q\u002A)*%
X61500000Y-89310000D03*
%TD*%
D11*
%TO.P,R11,1*%
%TO.N,Net-(U2-3A)*%
X59190000Y-106000000D03*
D10*
%TO.P,R11,2*%
%TO.N,B1*%
X66810000Y-106000000D03*
%TD*%
D11*
%TO.P,R9,1*%
%TO.N,Net-(Q1-Pad3)*%
X81560000Y-89310000D03*
D10*
%TO.P,R9,2*%
%TO.N,GND*%
X81560000Y-81690000D03*
%TD*%
D11*
%TO.P,R8,1*%
%TO.N,Ucp*%
X81440000Y-61500000D03*
D10*
%TO.P,R8,2*%
%TO.N,Net-(C2-Pad1)*%
X89060000Y-61500000D03*
%TD*%
D11*
%TO.P,R7,1*%
%TO.N,Net-(\u039C1-D)*%
X95060000Y-101810000D03*
D10*
%TO.P,R7,2*%
%TO.N,Net-(U3-2IN-)*%
X95060000Y-94190000D03*
%TD*%
D11*
%TO.P,R6,1*%
%TO.N,Net-(U3-2IN+)*%
X113560000Y-90000000D03*
D10*
%TO.P,R6,2*%
%TO.N,GND*%
X113560000Y-82380000D03*
%TD*%
D11*
%TO.P,R5,1*%
%TO.N,Uctrl*%
X104060000Y-74500000D03*
D10*
%TO.P,R5,2*%
%TO.N,Net-(U3-2IN+)*%
X96440000Y-74500000D03*
%TD*%
D11*
%TO.P,R4,1*%
%TO.N,Uctrl*%
X108810000Y-101500000D03*
D10*
%TO.P,R4,2*%
%TO.N,Net-(U3-2IN-)*%
X101190000Y-101500000D03*
%TD*%
D11*
%TO.P,R2,1*%
%TO.N,Net-(U3-1IN+)*%
X114500000Y-105310000D03*
D10*
%TO.P,R2,2*%
%TO.N,VCC*%
X114500000Y-97690000D03*
%TD*%
D11*
%TO.P,R1,1*%
%TO.N,GND*%
X115310000Y-74500000D03*
D10*
%TO.P,R1,2*%
%TO.N,Net-(U3-1IN+)*%
X107690000Y-74500000D03*
%TD*%
D15*
%TO.P,Q2,3,C*%
%TO.N,Ucp*%
X72000000Y-79000000D03*
%TO.P,Q2,2,B*%
%TO.N,B2*%
X70730000Y-77730000D03*
D14*
%TO.P,Q2,1,E*%
%TO.N,Net-(Q2-E)*%
X72000000Y-76460000D03*
%TD*%
D16*
%TO.P,Q1,2*%
%TO.N,Ucp*%
X71730000Y-87230000D03*
D17*
%TO.P,Q1,1*%
%TO.N,B1*%
X73000000Y-88500000D03*
D16*
%TO.P,Q1,3*%
%TO.N,Net-(Q1-Pad3)*%
X71730000Y-89770000D03*
%TD*%
D18*
%TO.P,D4,1,K*%
%TO.N,B2*%
X61500000Y-77000000D03*
D10*
%TO.P,D4,2,A*%
%TO.N,Net-(D3-K)*%
X61500000Y-69380000D03*
%TD*%
D18*
%TO.P,D3,1,K*%
%TO.N,Net-(D3-K)*%
X61500000Y-65310000D03*
D10*
%TO.P,D3,2,A*%
%TO.N,VCC*%
X61500000Y-57690000D03*
%TD*%
D18*
%TO.P,D2,1,K*%
%TO.N,GND*%
X74000000Y-105500000D03*
D10*
%TO.P,D2,2,A*%
%TO.N,Net-(D1-K)*%
X74000000Y-97880000D03*
%TD*%
D18*
%TO.P,D1,1,K*%
%TO.N,Net-(D1-K)*%
X66810000Y-97500000D03*
D10*
%TO.P,D1,2,A*%
%TO.N,B1*%
X59190000Y-97500000D03*
%TD*%
D11*
%TO.P,C3,1*%
%TO.N,Ucp*%
X81560000Y-69000000D03*
%TO.P,C3,2*%
%TO.N,GND*%
X81560000Y-74000000D03*
%TD*%
%TO.P,C2,1*%
%TO.N,Net-(C2-Pad1)*%
X89000000Y-69000000D03*
%TO.P,C2,2*%
%TO.N,GND*%
X89000000Y-74000000D03*
%TD*%
%TO.P,C1,1*%
%TO.N,Net-(U3-1IN-)*%
X104810000Y-95000000D03*
%TO.P,C1,2*%
%TO.N,Net-(U3-2IN-)*%
X102310000Y-95000000D03*
%TD*%
%TO.P,R10,1*%
%TO.N,VCC*%
X71500000Y-60690000D03*
D10*
%TO.P,R10,2*%
%TO.N,Net-(Q2-E)*%
X71500000Y-68310000D03*
%TD*%
D19*
%TO.N,VCC*%
X56500000Y-91200000D02*
X54120000Y-93580000D01*
X56500000Y-87000000D02*
X56500000Y-91200000D01*
%TO.N,GND*%
X44740000Y-103740000D02*
X46500000Y-103740000D01*
X43000000Y-102000000D02*
X44740000Y-103740000D01*
X43000000Y-80780000D02*
X43000000Y-102000000D01*
X46620000Y-77160000D02*
X43000000Y-80780000D01*
%TO.N,Net-(U3-1IN-)*%
X104000000Y-88000000D02*
X93840000Y-88000000D01*
X93840000Y-88000000D02*
X92340000Y-89500000D01*
X105040000Y-89040000D02*
X104000000Y-88000000D01*
X105040000Y-89500000D02*
X105040000Y-89040000D01*
%TO.N,Net-(U1-1R\u002AD)*%
X46500000Y-88500000D02*
X51580000Y-88500000D01*
X51580000Y-88500000D02*
X54120000Y-91040000D01*
%TO.N,VCC*%
X54120000Y-93580000D02*
X54420000Y-93580000D01*
%TO.N,Net-(U5-1D)*%
X120000000Y-84460000D02*
X122500000Y-86960000D01*
X121200000Y-76800000D02*
X120000000Y-78000000D01*
X122500000Y-76800000D02*
X121200000Y-76800000D01*
X120000000Y-78000000D02*
X120000000Y-84460000D01*
%TO.N,GND*%
X71500000Y-108000000D02*
X74000000Y-105500000D01*
X46500000Y-108000000D02*
X71500000Y-108000000D01*
X46500000Y-103740000D02*
X46500000Y-108000000D01*
%TO.N,Net-(U3-1IN+)*%
X90870000Y-106500000D02*
X90870000Y-93510000D01*
X90870000Y-93510000D02*
X94880000Y-89500000D01*
X90870000Y-106130000D02*
X91000000Y-106000000D01*
X90870000Y-106500000D02*
X90870000Y-106130000D01*
%TO.N,GND*%
X83810000Y-91190000D02*
X82000000Y-93000000D01*
X82000000Y-95500000D02*
X85000000Y-98500000D01*
X83810000Y-81690000D02*
X83810000Y-91190000D01*
X82000000Y-93000000D02*
X82000000Y-95500000D01*
X85000000Y-98500000D02*
X85500000Y-98500000D01*
X81560000Y-81690000D02*
X83810000Y-81690000D01*
%TO.N,VCC*%
X55000000Y-88500000D02*
X54120000Y-88500000D01*
X56500000Y-64180000D02*
X56500000Y-87000000D01*
X54240000Y-61920000D02*
X56500000Y-64180000D01*
X56500000Y-87000000D02*
X55000000Y-88500000D01*
%TO.N,Net-(D3-K)*%
X61500000Y-65310000D02*
X61500000Y-69380000D01*
%TO.N,Uctrl*%
X108810000Y-85650000D02*
X108810000Y-101500000D01*
X105040000Y-81880000D02*
X108810000Y-85650000D01*
%TO.N,Net-(U3-2IN-)*%
X100690000Y-94190000D02*
X95060000Y-94190000D01*
X101500000Y-95000000D02*
X100690000Y-94190000D01*
X102310000Y-95000000D02*
X101500000Y-95000000D01*
X101190000Y-96430000D02*
X101190000Y-101500000D01*
X102310000Y-95310000D02*
X101190000Y-96430000D01*
X102310000Y-95000000D02*
X102310000Y-95310000D01*
X102310000Y-89690000D02*
X102500000Y-89500000D01*
X102310000Y-95000000D02*
X102310000Y-89690000D01*
%TO.N,Net-(U3-1IN-)*%
X104810000Y-89730000D02*
X105040000Y-89500000D01*
X104810000Y-95000000D02*
X104810000Y-89730000D01*
%TO.N,Ucp*%
X99960000Y-81880000D02*
X87080000Y-69000000D01*
X87080000Y-69000000D02*
X81560000Y-69000000D01*
%TO.N,GND*%
X89540000Y-74000000D02*
X97420000Y-81880000D01*
X89000000Y-74000000D02*
X89540000Y-74000000D01*
X89000000Y-74000000D02*
X81560000Y-74000000D01*
X85000000Y-98500000D02*
X78000000Y-105500000D01*
%TO.N,Usq*%
X89800000Y-93430000D02*
X89800000Y-89500000D01*
X86000000Y-97230000D02*
X89800000Y-93430000D01*
X85500000Y-97230000D02*
X86000000Y-97230000D01*
X87500000Y-98500000D02*
X83250000Y-102750000D01*
X83250000Y-102750000D02*
X83250000Y-106500000D01*
X86230000Y-97230000D02*
X87500000Y-98500000D01*
X85500000Y-97230000D02*
X86230000Y-97230000D01*
%TO.N,GND*%
X78000000Y-105500000D02*
X74000000Y-105500000D01*
%TO.N,Net-(U3-1IN+)*%
X90870000Y-106500000D02*
X113310000Y-106500000D01*
X113310000Y-106500000D02*
X114500000Y-105310000D01*
%TO.N,Net-(U5-2D)*%
X131340000Y-79340000D02*
X130120000Y-79340000D01*
X132000000Y-80000000D02*
X131340000Y-79340000D01*
X132000000Y-89500000D02*
X132000000Y-80000000D01*
X130120000Y-89500000D02*
X132000000Y-89500000D01*
%TO.N,Uctrl*%
X103480000Y-80900000D02*
X102500000Y-81880000D01*
X104060000Y-80900000D02*
X103480000Y-80900000D01*
X104060000Y-80900000D02*
X105040000Y-81880000D01*
X104060000Y-74500000D02*
X104060000Y-80900000D01*
%TO.N,Net-(D1-K)*%
X73620000Y-97500000D02*
X74000000Y-97880000D01*
X66810000Y-97500000D02*
X73620000Y-97500000D01*
%TO.N,Net-(Q1-Pad3)*%
X81100000Y-89770000D02*
X81560000Y-89310000D01*
X71730000Y-89770000D02*
X81100000Y-89770000D01*
%TO.N,B1*%
X68190000Y-88500000D02*
X73000000Y-88500000D01*
X59190000Y-97500000D02*
X68190000Y-88500000D01*
X66810000Y-105120000D02*
X66810000Y-106000000D01*
X59190000Y-97500000D02*
X66810000Y-105120000D01*
%TO.N,Net-(U2-3A)*%
X58920000Y-106000000D02*
X59190000Y-106000000D01*
X54120000Y-101200000D02*
X58920000Y-106000000D01*
%TO.N,Net-(U2-1A)*%
X45540000Y-64460000D02*
X46620000Y-64460000D01*
X45000000Y-74000000D02*
X45000000Y-65000000D01*
X46620000Y-74620000D02*
X45620000Y-74620000D01*
X45620000Y-74620000D02*
X45000000Y-74000000D01*
X45000000Y-65000000D02*
X45540000Y-64460000D01*
%TO.N,Net-(U2-2A)*%
X46620000Y-69540000D02*
X46620000Y-72080000D01*
%TO.N,Net-(U2-1A)*%
X46620000Y-61920000D02*
X46620000Y-64460000D01*
%TO.N,Net-(U2-2A)*%
X49160000Y-72080000D02*
X54240000Y-77160000D01*
X46620000Y-72080000D02*
X49160000Y-72080000D01*
%TO.N,VCC*%
X51580000Y-96120000D02*
X54120000Y-98660000D01*
X51580000Y-96120000D02*
X46500000Y-96120000D01*
X54120000Y-93580000D02*
X51580000Y-96120000D01*
X51580000Y-91040000D02*
X54120000Y-93580000D01*
X46500000Y-91040000D02*
X51580000Y-91040000D01*
%TO.N,Ucp*%
X72000000Y-86960000D02*
X71730000Y-87230000D01*
X72000000Y-79000000D02*
X72000000Y-86960000D01*
%TO.N,B2*%
X61500000Y-77000000D02*
X61500000Y-81690000D01*
X70000000Y-77000000D02*
X61500000Y-77000000D01*
X70730000Y-77730000D02*
X70000000Y-77000000D01*
%TO.N,Net-(Q2-E)*%
X71500000Y-75960000D02*
X72000000Y-76460000D01*
X71500000Y-68310000D02*
X71500000Y-75960000D01*
%TO.N,Ucp*%
X81560000Y-69440000D02*
X72000000Y-79000000D01*
X81560000Y-69000000D02*
X81560000Y-69440000D01*
X81560000Y-61620000D02*
X81440000Y-61500000D01*
X81560000Y-69000000D02*
X81560000Y-61620000D01*
%TO.N,Net-(C2-Pad1)*%
X89060000Y-68940000D02*
X89000000Y-69000000D01*
X89060000Y-61500000D02*
X89060000Y-68940000D01*
%TO.N,GND*%
X81560000Y-81690000D02*
X81560000Y-74000000D01*
%TO.N,VCC*%
X115651665Y-97690000D02*
X114500000Y-97690000D01*
X124500000Y-88841665D02*
X115651665Y-97690000D01*
X124500000Y-81500000D02*
X124500000Y-88841665D01*
%TO.N,GND*%
X115310000Y-82310000D02*
X115500000Y-82500000D01*
X115310000Y-74500000D02*
X115310000Y-82310000D01*
X115500000Y-82500000D02*
X122500000Y-89500000D01*
X115380000Y-82380000D02*
X115500000Y-82500000D01*
X113560000Y-82380000D02*
X115380000Y-82380000D01*
%TO.N,VCC*%
X125200000Y-79500000D02*
X124500000Y-79500000D01*
X130120000Y-84420000D02*
X125200000Y-79500000D01*
X124500000Y-79500000D02*
X124500000Y-81500000D01*
X130120000Y-76800000D02*
X130120000Y-74260000D01*
X124500000Y-77000000D02*
X124500000Y-79500000D01*
X124120000Y-81880000D02*
X122500000Y-81880000D01*
X124500000Y-81500000D02*
X124120000Y-81880000D01*
X124500000Y-74260000D02*
X124500000Y-77000000D01*
X124500000Y-74260000D02*
X130120000Y-74260000D01*
X122500000Y-74260000D02*
X124500000Y-74260000D01*
X122500000Y-64000000D02*
X122500000Y-74260000D01*
X116190000Y-57690000D02*
X122500000Y-64000000D01*
X97690000Y-57690000D02*
X116190000Y-57690000D01*
%TO.N,GND*%
X115310000Y-70270000D02*
X115310000Y-74500000D01*
X113040000Y-68000000D02*
X115310000Y-70270000D01*
%TO.N,VCC*%
X97800000Y-57800000D02*
X97800000Y-60380000D01*
X97690000Y-57690000D02*
X97800000Y-57800000D01*
X69690000Y-57690000D02*
X97690000Y-57690000D01*
X71500000Y-59500000D02*
X71500000Y-60690000D01*
X69690000Y-57690000D02*
X71500000Y-59500000D01*
X61500000Y-57690000D02*
X69690000Y-57690000D01*
X54240000Y-61920000D02*
X54240000Y-60760000D01*
X54240000Y-60760000D02*
X57310000Y-57690000D01*
X57310000Y-57690000D02*
X61500000Y-57690000D01*
%TD*%
M02*
